<svg width="24" height="24" viewBox="0 0 32 32" fill="none" xmlns="http://www.w3.org/2000/svg">
    <path fill-rule="evenodd" clip-rule="evenodd" d="M16 0C7.16344 0 0 7.16344 0 16C0 24.8366 7.16344 32 16 32C24.8366 32 32 24.8366 32 16C32 7.16344 24.8366 0 16 0ZM8.49821 16.4981C8.10867 16.1086 8.10867 15.477 8.49821 15.0875L15.0858 8.49992C15.4763 8.1094 16.1095 8.1094 16.5 8.49992L23.0876 15.0875C23.4771 15.477 23.4771 16.1086 23.0876 16.4981C22.6983 16.8874 22.0672 16.8877 21.6776 16.4988L16.7929 11.6228V22.7928C16.7929 23.3451 16.3452 23.7928 15.7929 23.7928C15.2406 23.7928 14.7929 23.3451 14.7929 22.7928L14.7929 11.6228L9.90821 16.4988C9.51857 16.8877 8.8875 16.8874 8.49821 16.4981Z" />
</svg>
