<svg width="24" height="24" viewBox="0 0 32 32" fill="none" xmlns="http://www.w3.org/2000/svg">
    <path fill-rule="evenodd" clip-rule="evenodd" d="M16 0C7.16344 0 0 7.16344 0 16C0 24.8366 7.16344 32 16 32C24.8366 32 32 24.8366 32 16C32 7.16344 24.8366 0 16 0ZM15.2941 10.1153C14.9051 9.72568 14.9054 9.0946 15.2947 8.70532C15.6842 8.31578 16.3158 8.31578 16.7053 8.70532L23.2929 15.2929C23.6834 15.6834 23.6834 16.3166 23.2929 16.7071L16.7053 23.2947C16.3158 23.6842 15.6842 23.6842 15.2947 23.2947C14.9054 22.9054 14.9051 22.2743 15.2941 21.8847L20.17 17H9C8.44771 17 8 16.5523 8 16C8 15.4477 8.44771 15 9 15H20.17L15.2941 10.1153Z" />
</svg>
