<svg width="24" height="24" viewBox="0 0 32 32" fill="none" xmlns="http://www.w3.org/2000/svg">
    <rect x="1" y="1" width="30" height="30" rx="15" stroke="white" stroke-width="2"/>
    <path d="M16.7053 8.7053C16.3158 8.31576 15.6842 8.31576 15.2947 8.7053C14.9054 9.09459 14.9051 9.72566 15.2941 10.1153L20.17 15H9C8.44771 15 8 15.4477 8 16C8 16.5523 8.44772 17 9 17H20.17L15.2941 21.8847C14.9051 22.2743 14.9054 22.9054 15.2947 23.2947C15.6842 23.6842 16.3158 23.6842 16.7053 23.2947L23.2929 16.7071C23.6834 16.3166 23.6834 15.6834 23.2929 15.2929L16.7053 8.7053Z" fill="white"/>
</svg>