<svg width="24" height="24" viewBox="0 0 32 32" fill="none" xmlns="http://www.w3.org/2000/svg">
    <path fill-rule="evenodd" clip-rule="evenodd" d="M16 0C7.16344 0 0 7.16344 0 16C0 24.8366 7.16344 32 16 32C24.8366 32 32 24.8366 32 16C32 7.16344 24.8366 0 16 0ZM16.2911 23.2946C15.9016 23.6841 15.27 23.6841 14.8805 23.2946L8.29289 16.707C7.90237 16.3165 7.90237 15.6833 8.29289 15.2928L14.8805 8.70524C15.27 8.31571 15.9016 8.31571 16.2911 8.70524C16.6804 9.09453 16.6807 9.7256 16.2917 10.1152L11.4158 14.9999H22.5858C23.1381 14.9999 23.5858 15.4476 23.5858 15.9999C23.5858 16.5522 23.1381 16.9999 22.5858 16.9999L11.4158 16.9999L16.2917 21.8846C16.6807 22.2742 16.6804 22.9053 16.2911 23.2946Z" />
</svg>
