<svg width="24" height="24" viewBox="0 0 32 32" fill="none" xmlns="http://www.w3.org/2000/svg">
    <path fill-rule="evenodd" clip-rule="evenodd" d="M16 0C7.16344 0 0 7.16344 0 16C0 24.8366 7.16344 32 16 32C24.8366 32 32 24.8366 32 16C32 7.16344 24.8366 0 16 0ZM23.0876 15.5017C23.4771 15.8912 23.4771 16.5228 23.0876 16.9123L16.5 23.4999C16.1095 23.8904 15.4763 23.8904 15.0858 23.4999L8.49821 16.9123C8.10867 16.5228 8.10867 15.8912 8.49821 15.5017C8.8875 15.1124 9.51857 15.1121 9.90821 15.5011L14.7929 20.377L14.7929 9.20703C14.7929 8.65474 15.2406 8.20703 15.7929 8.20703C16.3452 8.20703 16.7929 8.65474 16.7929 9.20703V20.377L21.6776 15.5011C22.0672 15.1121 22.6983 15.1124 23.0876 15.5017Z" />
</svg>
